<svg width="36" height="35" viewBox="0 0 36 35" fill="none" xmlns="http://www.w3.org/2000/svg">
<path d="M17.2929 26.7071C17.6834 27.0976 18.3166 27.0976 18.7071 26.7071L25.0711 20.3431C25.4616 19.9526 25.4616 19.3195 25.0711 18.9289C24.6805 18.5384 24.0474 18.5384 23.6569 18.9289L18 24.5858L12.3431 18.9289C11.9526 18.5384 11.3195 18.5384 10.9289 18.9289C10.5384 19.3195 10.5384 19.9526 10.9289 20.3431L17.2929 26.7071ZM17 25V26H19V25H17Z" fill="white"/>
<path d="M17.2929 19.7071C17.6834 20.0976 18.3166 20.0976 18.7071 19.7071L25.0711 13.3431C25.4616 12.9526 25.4616 12.3195 25.0711 11.9289C24.6805 11.5384 24.0474 11.5384 23.6569 11.9289L18 17.5858L12.3431 11.9289C11.9526 11.5384 11.3195 11.5384 10.9289 11.9289C10.5384 12.3195 10.5384 12.9526 10.9289 13.3431L17.2929 19.7071ZM17 18V19H19V18H17Z" fill="white"/>
<rect x="0.5" width="35" height="35" rx="17.5" fill="white" fill-opacity="0.2"/>
</svg>
