<svg width="40" height="40" viewBox="0 0 40 40" fill="none" xmlns="http://www.w3.org/2000/svg">
    <g clip-path="url(#clip0_1_4)">
        <path d="M1.56049 36.1979C1.34624 36.1979 1.13072 36.1262 0.952282 35.9791C0.54233 35.6434 0.483492 35.0384 0.819895 34.6284L10.9107 22.3375C11.3712 21.8125 12.005 21.5164 12.6708 21.5004C13.357 21.485 13.985 21.7498 14.4481 22.2282L23.0769 31.141C23.2252 31.2944 23.3992 31.2944 23.49 31.2804C23.5815 31.2663 23.7471 31.2145 23.843 31.0233L28.703 21.2957C29.1027 20.495 29.9066 19.9878 30.8013 19.9719C31.7018 19.952 32.5173 20.4343 32.9458 21.2196L39.1622 32.6247C39.4161 33.0903 39.2447 33.6736 38.7797 33.9268C38.3154 34.1814 37.7322 34.01 37.4782 33.5444L31.2612 22.1393C31.1371 21.9103 30.9145 21.8899 30.8352 21.8918C30.7495 21.8931 30.5359 21.9218 30.4195 22.154L25.559 31.8816C25.2123 32.5755 24.5478 33.0602 23.7823 33.1779C23.0167 33.2956 22.2378 33.034 21.6986 32.477L13.0705 23.5642C12.9438 23.4331 12.7769 23.419 12.7174 23.4197C12.6394 23.4216 12.4917 23.4452 12.3721 23.5808L2.30237 35.8474C2.11242 36.0783 1.83806 36.1979 1.56049 36.1979Z" fill="#FF2400"/>
        <path d="M29.8465 31.0406C29.819 31.0406 29.7915 31.0399 29.764 31.0393C28.7759 31.0054 27.9221 30.3825 27.5895 29.4506C27.571 29.3988 27.5569 29.3451 27.5473 29.2907L25.1778 15.5244C25.0825 15.3339 24.9066 15.2846 24.8305 15.2725C24.7474 15.259 24.5363 15.2494 24.3803 15.4483L14.418 28.1632C13.6512 29.1411 12.2857 29.3713 11.2407 28.7011L0.942692 21.6756C0.50524 21.377 0.392039 20.7796 0.690709 20.3415C0.988739 19.9034 1.58544 19.7909 2.02353 20.0895L12.2992 27.0996C12.484 27.2186 12.7552 27.1726 12.9074 26.9781L22.8697 14.2639C23.4082 13.577 24.2741 13.2368 25.1381 13.3775C25.999 13.5175 26.7153 14.1149 27.0088 14.9361C27.0267 14.9885 27.0414 15.0416 27.0504 15.0959L29.4212 28.8629C29.5293 29.0848 29.7384 29.1174 29.828 29.12C29.922 29.1225 30.1637 29.1027 30.2801 28.8341L37.4328 11.3674C37.633 10.8762 38.1952 10.6421 38.6838 10.8429C39.1743 11.0438 39.409 11.6046 39.2076 12.0952L32.0478 29.5811C31.6571 30.4816 30.8014 31.0406 29.8465 31.0406Z" fill="#008000"/>
        <path d="M38.8904 40H6.58161C2.75966 40 0.150299 37.2589 0.150299 33.6231V0.959964C0.150299 0.429778 0.580076 0 1.10962 0C1.63917 0 2.06895 0.429778 2.06895 0.959964V33.6231C2.06895 36.164 3.85329 38.0801 6.58161 38.0801H38.8897C39.4193 38.0801 39.8491 38.5098 39.8491 39.04C39.8497 39.5709 39.4199 40 38.8904 40Z" fill="#282828"/>
    </g>
    <defs>
        <clipPath id="clip0_1_4">
            <rect width="40" height="40" fill="#282828"/>
        </clipPath>
    </defs>
</svg>
